<svg width="47" height="14" xmlns="http://www.w3.org/2000/svg"><g id="Symbols" stroke="none" stroke-width="1" fill="none" fill-rule="evenodd"><g id="Footer" transform="translate(-1028 -114)" fill="gray"><g id="Card-networks/Visa" transform="translate(1028 114)"><g id="Visa"><path d="M34.304.676l-.513 2.916-.341-.156a7.174 7.174 0 00-2.832-.515c-1.482 0-2.169.599-2.169 1.157-.008.63.803 1.046 2.127 1.668 2.184.962 3.192 2.127 3.178 3.656C33.724 12.198 31.14 14 27.16 14c-1.698-.016-3.334-.341-4.217-.717l.532-3.013.487.213c1.244.502 2.049.706 3.562.706 1.09 0 2.257-.41 2.268-1.313.006-.589-.49-1.01-1.964-1.668-1.437-.644-3.338-1.725-3.317-3.657C24.535 1.934 27.17.109 30.91.109c1.468 0 2.644.294 3.394.567zm9.683-.567L47 14h-3.454s-.342-1.596-.453-2.082l-4.765-.007c-.146.377-.783 2.089-.783 2.089h-3.91l5.528-12.738C39.554.358 40.22.109 41.113.109h2.874zM4.238 1.85C3.01 1.178 1.593.642 0 .278L.046 0h6.215c.836.03 1.512.281 1.745 1.128l1.349 6.148a9.449 9.449 0 00-.252-.56c.153.32.28.638.377.953l.397 1.928 3.71-9.488h4.011l-5.964 13.885L7.625 14 4.238 1.848zm35.16 7.22c.31-.801 1.482-3.886 1.482-3.886-.02.038.306-.805.493-1.327l.252 1.199.863 4.014h-3.09zM16.93 14L19.242.11h3.702L20.626 14H16.93z" id="Fill-1"/></g></g></g></g></svg>