<svg width="22" height="26" xmlns="http://www.w3.org/2000/svg"><g id="Symbols" stroke="none" stroke-width="1" fill="none" fill-rule="evenodd" opacity=".51"><g id="Footer" transform="translate(-733 -238)" fill="#484848" fill-rule="nonzero"><g id="Group" transform="translate(733 209)"><g id="Apple-Store" transform="translate(0 29)"><path d="M19.62 22.772c-1.089 1.585-2.215 3.16-3.993 3.193-1.75.033-2.31-1.032-4.308-1.032-1.998 0-2.624 1-4.276 1.065-1.716.064-3.021-1.712-4.12-3.29-2.242-3.226-3.953-9.121-1.651-13.1 1.14-1.976 3.182-3.226 5.395-3.26 1.686-.03 3.279 1.132 4.308 1.132 1.031 0 2.964-1.395 4.996-1.19.85.034 3.238.34 4.77 2.574-.12.08-2.848 1.66-2.815 4.952.033 3.932 3.461 5.24 3.501 5.257-.031.093-.548 1.866-1.807 3.7zM12.155 1.97C13.095.871 14.685.055 15.998 0c.168 1.525-.449 3.052-1.359 4.152-.912 1.099-2.405 1.955-3.87 1.84-.199-1.492.54-3.048 1.386-4.023z" id="logo"/></g></g></g></g></svg>