<svg width="22" height="25" xmlns="http://www.w3.org/2000/svg"><g id="Symbols" stroke="none" stroke-width="1" fill="none" fill-rule="evenodd" opacity=".51"><g id="Footer" transform="translate(-774 -240)" fill="#484848" fill-rule="nonzero"><g id="Group" transform="translate(733 209)"><g id="Google-Play" transform="translate(41 31)"><path d="M0 23.29V1.713A1.91 1.91 0 011.042 0L13.2 12.498 1.037 25A1.91 1.91 0 010 23.29zm16.72-7.026l-13.2 7.843 10.41-10.714 2.79 2.87zm4.507-5.697c.47.343.773.882.773 1.49 0 .597-.294 1.13-.752 1.472l-3.002 1.65-3.286-3.126 3.283-3.124 2.984 1.638zM3.52.893l13.2 7.843-2.79 2.871L3.52.893z" id="logo"/></g></g></g></g></svg>